<svg xmlns="http://www.w3.org/2000/svg" viewBox="0 0 51.57 41.08"><defs><style>.cls-1{fill:#d76263;}.cls-2{fill:none;stroke:#d76263;stroke-linecap:round;stroke-width:3px;}</style></defs><title>Ресурс 1</title><g id="Слой_2" data-name="Слой 2"><g id="Слой_1-2" data-name="Слой 1"><text/><path class="cls-1" d="M7.07,31c-.65,0-1-.37-1-1.11V22.87c0-.73.33-1.1,1-1.1s1,.37,1,1.1v4.26l1.71-1.44a4.27,4.27,0,0,1,.54-.42,1.09,1.09,0,0,1,.57-.13,1,1,0,0,1,.58.16.56.56,0,0,1,.23.49.65.65,0,0,1,0,.29.67.67,0,0,1-.19.24l-1.33,1.15,1.58,2.25a.91.91,0,0,1,.15.32,1.33,1.33,0,0,1,0,.28.61.61,0,0,1-.23.52.91.91,0,0,1-.59.19,1,1,0,0,1-.68-.21,4.17,4.17,0,0,1-.49-.6L8.81,28.61l-.76.65v.67C8.05,30.67,7.73,31,7.07,31Z"/><path class="cls-1" d="M18.32,31a1.14,1.14,0,0,1-.73-.2.72.72,0,0,1-.26-.53v-.08a1.31,1.31,0,0,1-.31.4,1.78,1.78,0,0,1-.59.35,2.35,2.35,0,0,1-.88.15,2.71,2.71,0,0,1-1.13-.23,1.91,1.91,0,0,1-.8-.65,1.77,1.77,0,0,1-.29-1,1.56,1.56,0,0,1,.35-1.06,2.08,2.08,0,0,1,.91-.6,3.7,3.7,0,0,1,1.21-.2,2.82,2.82,0,0,1,.68.08,1.82,1.82,0,0,1,.5.17,1,1,0,0,1,.26.16v-.45a.5.5,0,0,0-.09-.29.7.7,0,0,0-.25-.23,1.38,1.38,0,0,0-.37-.16,2.14,2.14,0,0,0-.45-.05,3.34,3.34,0,0,0-.65.06,3.57,3.57,0,0,0-.54.13l-.26.06a1.12,1.12,0,0,1-.27,0,.8.8,0,0,1-.53-.17.56.56,0,0,1-.2-.49.6.6,0,0,1,.2-.48,1.77,1.77,0,0,1,.49-.27,4.57,4.57,0,0,1,.82-.19,6.68,6.68,0,0,1,1.13-.08,4.51,4.51,0,0,1,1.05.12,3.33,3.33,0,0,1,.88.37,2,2,0,0,1,.6.6A1.51,1.51,0,0,1,19,27v2.59h.15a.71.71,0,0,1,.52.18.66.66,0,0,1,.18.49.61.61,0,0,1-.22.5,1.15,1.15,0,0,1-.75.19ZM14,23.66a.44.44,0,0,1,.23-.4,1.33,1.33,0,0,1,.72-.15h2.81a1.4,1.4,0,0,1,.73.15.47.47,0,0,1,0,.8,1.52,1.52,0,0,1-.73.14H14.92a1.45,1.45,0,0,1-.72-.14A.44.44,0,0,1,14,23.66Zm3.27,5.15a.62.62,0,0,0-.24-.19,1.85,1.85,0,0,0-.4-.16,1.51,1.51,0,0,0-.48-.07,1.41,1.41,0,0,0-.71.16.57.57,0,0,0-.28.54.68.68,0,0,0,.12.42.62.62,0,0,0,.32.22,1.41,1.41,0,0,0,.47.07,1.09,1.09,0,0,0,.55-.13,1.45,1.45,0,0,0,.42-.3,1,1,0,0,0,.23-.31Z"/><path class="cls-1" d="M22,29.57h1V26.65h-.59a1.53,1.53,0,0,1-.82-.18.6.6,0,0,1-.28-.52.59.59,0,0,1,.28-.52,1.53,1.53,0,0,1,.82-.18h1.43A1,1,0,0,1,25,26.36v3.21h.84a1.28,1.28,0,0,1,.75.18.65.65,0,0,1,0,1,1.28,1.28,0,0,1-.75.18H22a1.28,1.28,0,0,1-.74-.18.65.65,0,0,1,0-1A1.28,1.28,0,0,1,22,29.57Zm.59-6.6a1.25,1.25,0,0,1,.17-.66,1.3,1.3,0,0,1,.47-.46A1.28,1.28,0,0,1,25.22,23a1.19,1.19,0,0,1-.17.65,1.22,1.22,0,0,1-.46.47,1.31,1.31,0,0,1-1.79-.47A1.19,1.19,0,0,1,22.63,23Z"/><path class="cls-1" d="M33.17,31q-1,0-1-1.11v-2a2.18,2.18,0,0,0-.18-1,.67.67,0,0,0-.63-.34.86.86,0,0,0-.39.09,1,1,0,0,0-.3.25,1.42,1.42,0,0,0-.19.39,1.35,1.35,0,0,0-.07.46v2.18q0,1.11-1,1.11c-.65,0-1-.37-1-1.11V26.25c0-.74.33-1.1,1-1.1a.85.85,0,0,1,.94.69V26a2.25,2.25,0,0,1,.7-.63,2,2,0,0,1,1-.24,2.47,2.47,0,0,1,1.09.23,1.65,1.65,0,0,1,.74.78,3.52,3.52,0,0,1,.26,1.47v2.31a1.18,1.18,0,0,1-.25.82A.93.93,0,0,1,33.17,31Z"/><path class="cls-1" d="M38.55,34a4.5,4.5,0,0,1-1-.1,3.69,3.69,0,0,1-.87-.27,1.63,1.63,0,0,1-.63-.47,1,1,0,0,1-.24-.69.78.78,0,0,1,.26-.64,1.09,1.09,0,0,1,.67-.2.88.88,0,0,1,.59.17,1.82,1.82,0,0,1,.34.34.68.68,0,0,0,.34.33,1.33,1.33,0,0,0,.56.11,1,1,0,0,0,.45-.1.74.74,0,0,0,.36-.32,1.12,1.12,0,0,0,.14-.59V30.47a2,2,0,0,1-.64.46,2.06,2.06,0,0,1-.84.16,2.38,2.38,0,0,1-1.26-.34,2.51,2.51,0,0,1-.92-1,3.55,3.55,0,0,1-.34-1.64,3.48,3.48,0,0,1,.34-1.63,2.42,2.42,0,0,1,.92-1,2.38,2.38,0,0,1,1.26-.34,2,2,0,0,1,.91.19,1.68,1.68,0,0,1,.65.53V25.7a.86.86,0,0,1,.88-.55c.66,0,1,.37,1,1.09V31a3.53,3.53,0,0,1-.26,1.44,2.26,2.26,0,0,1-.69.9,2.67,2.67,0,0,1-1,.46A4.21,4.21,0,0,1,38.55,34Zm.06-4.3a.83.83,0,0,0,.44-.12.89.89,0,0,0,.33-.31,1,1,0,0,0,.17-.43V27.53a1.31,1.31,0,0,0-.15-.46,1.42,1.42,0,0,0-.33-.36.83.83,0,0,0-.46-.14.94.94,0,0,0-.54.17,1.23,1.23,0,0,0-.39.52,2.56,2.56,0,0,0,0,1.67,1.3,1.3,0,0,0,.39.54A.88.88,0,0,0,38.61,29.65Z"/><path class="cls-1" d="M48,31a1.16,1.16,0,0,1-.73-.2.67.67,0,0,1-.25-.53v-.08a1.31,1.31,0,0,1-.31.4,1.78,1.78,0,0,1-.59.35,2.31,2.31,0,0,1-.88.15,2.75,2.75,0,0,1-1.13-.23,1.91,1.91,0,0,1-.8-.65,1.84,1.84,0,0,1-.29-1,1.56,1.56,0,0,1,.35-1.06,2.08,2.08,0,0,1,.91-.6,3.7,3.7,0,0,1,1.21-.2,2.76,2.76,0,0,1,.68.08,1.82,1.82,0,0,1,.5.17,1.35,1.35,0,0,1,.27.16v-.45a.45.45,0,0,0-.1-.29.7.7,0,0,0-.25-.23,1.25,1.25,0,0,0-.37-.16,2.14,2.14,0,0,0-.45-.05,3.34,3.34,0,0,0-.65.06,3.57,3.57,0,0,0-.54.13l-.25.06a1.12,1.12,0,0,1-.27,0,.81.81,0,0,1-.54-.17.56.56,0,0,1-.2-.49.57.57,0,0,1,.21-.48,1.58,1.58,0,0,1,.48-.27,4.57,4.57,0,0,1,.82-.19A6.75,6.75,0,0,1,46,25.12a4.44,4.44,0,0,1,1.05.12,3.33,3.33,0,0,1,.88.37,2.06,2.06,0,0,1,.61.6,1.59,1.59,0,0,1,.22.82v2.59h.15a.7.7,0,0,1,.52.18.66.66,0,0,1,.18.49.61.61,0,0,1-.22.5,1.13,1.13,0,0,1-.75.19ZM47,28.81a.83.83,0,0,0-.24-.19,2,2,0,0,0-.41-.16,1.51,1.51,0,0,0-.48-.07,1.41,1.41,0,0,0-.71.16.57.57,0,0,0-.28.54.68.68,0,0,0,.12.42.66.66,0,0,0,.32.22,1.41,1.41,0,0,0,.47.07,1.16,1.16,0,0,0,.56-.13,1.55,1.55,0,0,0,.41-.3,1.24,1.24,0,0,0,.24-.31Z"/><path id="Path_1" data-name="Path 1" class="cls-2" d="M1.5,20.23l7.62-5.79V4h7.77v6.38L27.62,1.91,50.07,19.64"/></g></g></svg>